<svg xmlns="http://www.w3.org/2000/svg" width="1000" height="800">
<rect width="100%" height="100%" fill="#f8f9fa" />
<text x="20" y="30" font-family="Arial" font-size="20" font-weight="bold">Vellum: Architectural Dependency Map</text>
<rect x="50" y="75" width="160" height="50" rx="5" fill="#e9ecef" stroke="#343a40" stroke-width="1" />
<text x="130" y="105" font-family="Arial" font-size="12" text-anchor="middle">Class1</text>
<text x="130" y="120" font-family="Arial" font-size="10" text-anchor="middle" fill="#6c757d">SampleApp.UI</text>
<rect x="50" y="225" width="160" height="50" rx="5" fill="#e9ecef" stroke="#343a40" stroke-width="1" />
<text x="130" y="255" font-family="Arial" font-size="12" text-anchor="middle">OrderController</text>
<text x="130" y="270" font-family="Arial" font-size="10" text-anchor="middle" fill="#6c757d">SampleApp.UI</text>
<rect x="50" y="375" width="160" height="50" rx="5" fill="#e9ecef" stroke="#343a40" stroke-width="1" />
<text x="130" y="405" font-family="Arial" font-size="12" text-anchor="middle">Class1</text>
<text x="130" y="420" font-family="Arial" font-size="10" text-anchor="middle" fill="#6c757d">SampleApp.Service</text>
<rect x="50" y="525" width="160" height="50" rx="5" fill="#e9ecef" stroke="#343a40" stroke-width="1" />
<text x="130" y="555" font-family="Arial" font-size="12" text-anchor="middle">OrderService</text>
<text x="130" y="570" font-family="Arial" font-size="10" text-anchor="middle" fill="#6c757d">SampleApp.Service</text>
<rect x="50" y="675" width="160" height="50" rx="5" fill="#e9ecef" stroke="#343a40" stroke-width="1" />
<text x="130" y="705" font-family="Arial" font-size="12" text-anchor="middle">Class1</text>
<text x="130" y="720" font-family="Arial" font-size="10" text-anchor="middle" fill="#6c757d">SampleApp.Data</text>
<rect x="300" y="75" width="160" height="50" rx="5" fill="#e9ecef" stroke="#343a40" stroke-width="1" />
<text x="380" y="105" font-family="Arial" font-size="12" text-anchor="middle">OrderRepository</text>
<text x="380" y="120" font-family="Arial" font-size="10" text-anchor="middle" fill="#6c757d">SampleApp.Data</text>
<line x1="210" y1="250" x2="50" y2="550" stroke="#6c757d" stroke-width="1" marker-end="url(#arrowhead)" />
<line x1="210" y1="250" x2="300" y2="100" stroke="#dc3545" stroke-width="2" marker-end="url(#arrowhead)" />
<line x1="210" y1="550" x2="300" y2="100" stroke="#6c757d" stroke-width="1" marker-end="url(#arrowhead)" />
<defs><marker id="arrowhead" markerWidth="10" markerHeight="7" refX="0" refY="3.5" orient="auto">
<polygon points="0 0, 10 3.5, 0 7" fill="#6c757d" /></marker></defs>
</svg>
